ply
format ascii 1.0
comment Created by Blender 2.83.5 - www.blender.org, source file: ''
element vertex 516
property float x
property float y
property float z
property float nx
property float ny
property float nz
element face 172
property list uchar uint vertex_indices
end_header
450.329010 -89.330727 93.267593 -0.644988 -0.763875 0.022034
449.393890 -88.707329 87.506386 -0.644988 -0.763875 0.022034
453.345398 -92.050224 87.284798 -0.644988 -0.763875 0.022034
450.329010 -89.330727 93.267593 -0.631194 -0.774880 0.033990
453.345398 -92.050224 87.284798 -0.631194 -0.774880 0.033990
454.100403 -92.464294 91.865501 -0.631194 -0.774880 0.033990
453.828796 -83.331345 88.217712 -0.563988 0.822471 -0.073892
459.423096 -79.455849 88.655731 -0.563988 0.822471 -0.073892
458.937714 -80.313164 82.817894 -0.563988 0.822471 -0.073892
453.828796 -83.331345 88.217712 -0.583712 0.805525 -0.102025
458.937714 -80.313164 82.817894 -0.583712 0.805525 -0.102025
454.245392 -83.818222 81.990196 -0.583712 0.805525 -0.102025
450.329010 -89.330727 93.267593 -0.645493 0.675911 0.355644
455.521210 -84.870079 94.213837 -0.645493 0.675911 0.355644
453.828796 -83.331345 88.217712 -0.645493 0.675911 0.355644
450.329010 -89.330727 93.267593 -0.769461 0.609513 0.190847
453.828796 -83.331345 88.217712 -0.769461 0.609513 0.190847
449.393890 -88.707329 87.506386 -0.769461 0.609513 0.190847
453.937408 -90.921082 77.333298 -0.628145 0.305165 -0.715758
456.651093 -86.677902 76.760872 -0.628145 0.305165 -0.715758
459.983704 -91.567032 71.751701 -0.628145 0.305165 -0.715758
453.937408 -90.921082 77.333298 -0.680274 -0.047448 -0.731420
459.983704 -91.567032 71.751701 -0.680274 -0.047448 -0.731420
457.384308 -93.748512 74.310844 -0.680274 -0.047448 -0.731420
455.521210 -84.870079 94.213837 -0.499361 0.769194 0.398722
461.352814 -81.334442 94.696602 -0.499361 0.769194 0.398722
459.423096 -79.455849 88.655731 -0.499361 0.769194 0.398722
455.521210 -84.870079 94.213837 -0.551804 0.756974 0.350003
459.423096 -79.455849 88.655731 -0.551804 0.756974 0.350003
453.828796 -83.331345 88.217712 -0.551804 0.756974 0.350003
457.093903 -86.796913 100.487183 -0.460527 0.789383 0.405942
463.089508 -83.410149 100.703186 -0.460527 0.789383 0.405942
461.352814 -81.334442 94.696602 -0.460527 0.789383 0.405942
457.093903 -86.796913 100.487183 -0.504357 0.781823 0.366574
461.352814 -81.334442 94.696602 -0.504357 0.781823 0.366574
455.521210 -84.870079 94.213837 -0.504357 0.781823 0.366574
461.352814 -81.334442 94.696602 -0.589561 0.711680 0.382008
466.409088 -76.819366 94.088486 -0.589561 0.711680 0.382008
464.152405 -75.875916 88.848045 -0.589561 0.711680 0.382008
461.352814 -81.334442 94.696602 -0.562486 0.721374 0.404016
464.152405 -75.875916 88.848045 -0.562486 0.721374 0.404016
459.423096 -79.455849 88.655731 -0.562486 0.721374 0.404016
463.089508 -83.410149 100.703186 -0.637899 0.681418 0.358825
468.433685 -77.951195 99.837074 -0.637899 0.681418 0.358825
466.409088 -76.819366 94.088486 -0.637899 0.681418 0.358825
463.089508 -83.410149 100.703186 -0.579284 0.704047 0.410788
466.409088 -76.819366 94.088486 -0.579284 0.704047 0.410788
461.352814 -81.334442 94.696602 -0.579284 0.704047 0.410788
457.384308 -93.748512 74.310844 -0.640666 -0.751329 -0.158279
459.918213 -96.765968 78.377815 -0.640666 -0.751329 -0.158279
456.102814 -94.041649 80.889435 -0.640666 -0.751329 -0.158279
457.384308 -93.748512 74.310844 -0.709314 -0.684415 -0.168670
456.102814 -94.041649 80.889435 -0.709314 -0.684415 -0.168670
453.937408 -90.921082 77.333298 -0.709314 -0.684415 -0.168670
466.409088 -76.819366 94.088486 -0.493873 0.778084 0.388169
470.906494 -73.508202 93.173378 -0.493873 0.778084 0.388169
468.770691 -72.817726 89.071915 -0.493873 0.778084 0.388169
466.409088 -76.819366 94.088486 -0.526276 0.768037 0.364901
468.770691 -72.817726 89.071915 -0.526276 0.768037 0.364901
464.152405 -75.875916 88.848045 -0.526276 0.768037 0.364901
468.433685 -77.951195 99.837074 -0.400261 0.824055 0.400904
473.145813 -74.516945 97.482567 -0.400261 0.824055 0.400904
470.906494 -73.508202 93.173378 -0.400261 0.824055 0.400904
468.433685 -77.951195 99.837074 -0.513058 0.789777 0.336192
470.906494 -73.508202 93.173378 -0.513058 0.789777 0.336192
466.409088 -76.819366 94.088486 -0.513058 0.789777 0.336192
478.523499 -72.456345 89.743805 0.252120 0.953141 0.167208
477.706696 -71.498734 85.516693 0.252120 0.953141 0.167208
473.388489 -70.957207 88.940895 0.252120 0.953141 0.167208
478.523499 -72.456345 89.743805 0.221956 0.925169 0.307891
473.388489 -70.957207 88.940895 0.221956 0.925169 0.307891
474.132996 -72.224548 92.212372 0.221956 0.925169 0.307891
462.881592 -96.380348 89.792122 -0.346728 -0.936788 -0.046987
462.209900 -96.426743 95.673698 -0.346728 -0.936788 -0.046987
458.767487 -95.077042 94.166817 -0.346728 -0.936788 -0.046987
462.881592 -96.380348 89.792122 -0.406549 -0.906713 -0.112204
458.767487 -95.077042 94.166817 -0.406549 -0.906713 -0.112204
458.420898 -94.410538 90.036652 -0.406549 -0.906713 -0.112204
470.906494 -73.508202 93.173378 -0.234705 0.887246 0.397124
474.132996 -72.224548 92.212372 -0.234705 0.887246 0.397124
473.388489 -70.957207 88.940895 -0.234705 0.887246 0.397124
470.906494 -73.508202 93.173378 -0.345053 0.879500 0.327746
473.388489 -70.957207 88.940895 -0.345053 0.879500 0.327746
468.770691 -72.817726 89.071915 -0.345053 0.879500 0.327746
473.145813 -74.516945 97.482567 0.007695 0.916451 0.400073
475.135712 -73.715958 95.609467 0.007695 0.916451 0.400073
474.132996 -72.224548 92.212372 0.007695 0.916451 0.400073
473.145813 -74.516945 97.482567 -0.256572 0.902966 0.344707
474.132996 -72.224548 92.212372 -0.256572 0.902966 0.344707
470.906494 -73.508202 93.173378 -0.256572 0.902966 0.344707
453.345398 -92.050224 87.284798 -0.449531 -0.890899 0.064972
457.691406 -94.377808 85.438202 -0.449531 -0.890899 0.064972
458.420898 -94.410538 90.036652 -0.449531 -0.890899 0.064972
453.345398 -92.050224 87.284798 -0.415505 -0.909487 -0.013728
458.420898 -94.410538 90.036652 -0.415505 -0.909487 -0.013728
454.100403 -92.464294 91.865501 -0.415505 -0.909487 -0.013728
478.523499 -72.456345 89.743805 0.592772 0.782687 -0.189796
481.834412 -75.823776 86.197754 0.592772 0.782687 -0.189796
480.506714 -75.981354 81.401253 0.592772 0.782687 -0.189796
478.523499 -72.456345 89.743805 0.832564 0.552781 -0.035649
480.506714 -75.981354 81.401253 0.832564 0.552781 -0.035649
477.706696 -71.498734 85.516693 0.832564 0.552781 -0.035649
459.918213 -96.765968 78.377815 0.071587 -0.997316 0.015381
464.210114 -96.502724 75.471207 0.071587 -0.997316 0.015381
466.219208 -96.252594 82.339142 0.071587 -0.997316 0.015381
459.918213 -96.765968 78.377815 0.128799 -0.988697 -0.076740
466.219208 -96.252594 82.339142 0.128799 -0.988697 -0.076740
461.815887 -96.954369 83.990135 0.128799 -0.988697 -0.076740
459.983704 -91.567032 71.751701 0.025141 -0.523906 -0.851405
463.271515 -88.671089 70.066788 0.025141 -0.523906 -0.851405
468.412903 -93.995056 73.494675 0.025141 -0.523906 -0.851405
459.983704 -91.567032 71.751701 -0.010851 -0.607709 -0.794086
468.412903 -93.995056 73.494675 -0.010851 -0.607709 -0.794086
464.210114 -96.502724 75.471207 -0.010851 -0.607709 -0.794086
462.881592 -96.380348 89.792122 0.157196 -0.982613 0.098794
467.476501 -95.730278 88.946587 0.157196 -0.982613 0.098794
467.231293 -95.097229 95.633118 0.157196 -0.982613 0.098794
462.881592 -96.380348 89.792122 0.256054 -0.966421 0.021619
467.231293 -95.097229 95.633118 0.256054 -0.966421 0.021619
462.209900 -96.426743 95.673698 0.256054 -0.966421 0.021619
461.815887 -96.954369 83.990135 0.173569 -0.983805 0.044742
466.219208 -96.252594 82.339142 0.173569 -0.983805 0.044742
467.476501 -95.730278 88.946587 0.173569 -0.983805 0.044742
461.815887 -96.954369 83.990135 0.152281 -0.985886 0.069568
467.476501 -95.730278 88.946587 0.152281 -0.985886 0.069568
462.881592 -96.380348 89.792122 0.152281 -0.985886 0.069568
456.651093 -86.677902 76.760872 -0.442636 0.639805 -0.628270
460.532715 -83.496796 77.265656 -0.442636 0.639805 -0.628270
463.271515 -88.671089 70.066788 -0.442636 0.639805 -0.628270
456.651093 -86.677902 76.760872 -0.631558 0.301396 -0.714350
463.271515 -88.671089 70.066788 -0.631558 0.301396 -0.714350
459.983704 -91.567032 71.751701 -0.631558 0.301396 -0.714350
467.476501 -95.730278 88.946587 0.581503 -0.808382 0.091503
471.226990 -93.142487 87.973991 0.581503 -0.808382 0.091503
471.372406 -92.227867 95.130035 0.581503 -0.808382 0.091503
467.476501 -95.730278 88.946587 0.574812 -0.812397 0.097993
471.372406 -92.227867 95.130035 0.574812 -0.812397 0.097993
467.231293 -95.097229 95.633118 0.574812 -0.812397 0.097993
466.219208 -96.252594 82.339142 0.440247 -0.892159 0.101166
470.403900 -94.355019 80.862778 0.440247 -0.892159 0.101166
471.226990 -93.142487 87.973991 0.440247 -0.892159 0.101166
466.219208 -96.252594 82.339142 0.560178 -0.827348 -0.041192
471.226990 -93.142487 87.973991 0.560178 -0.827348 -0.041192
467.476501 -95.730278 88.946587 0.560178 -0.827348 -0.041192
471.226990 -93.142487 87.973991 0.712097 -0.698116 0.074511
474.449707 -89.934105 87.234955 0.712097 -0.698116 0.074511
474.813904 -88.804802 94.335152 0.712097 -0.698116 0.074511
471.226990 -93.142487 87.973991 0.711861 -0.698327 0.074788
474.813904 -88.804802 94.335152 0.711861 -0.698327 0.074788
471.372406 -92.227867 95.130035 0.711861 -0.698327 0.074788
470.403900 -94.355019 80.862778 0.688050 -0.722782 0.064600
473.872192 -91.114136 80.183151 0.688050 -0.722782 0.064600
474.449707 -89.934105 87.234955 0.688050 -0.722782 0.064600
470.403900 -94.355019 80.862778 0.709374 -0.703813 0.037900
474.449707 -89.934105 87.234955 0.709374 -0.703813 0.037900
471.226990 -93.142487 87.973991 0.709374 -0.703813 0.037900
457.384308 -93.748512 74.310844 -0.148425 -0.673087 -0.724517
459.983704 -91.567032 71.751701 -0.148425 -0.673087 -0.724517
464.210114 -96.502724 75.471207 -0.148425 -0.673087 -0.724517
457.384308 -93.748512 74.310844 -0.262449 -0.845981 -0.464151
464.210114 -96.502724 75.471207 -0.262449 -0.845981 -0.464151
459.918213 -96.765968 78.377815 -0.262449 -0.845981 -0.464151
474.449707 -89.934105 87.234955 0.693632 -0.707859 0.133457
478.376312 -86.279358 86.211617 0.693632 -0.707859 0.133457
478.560303 -84.763062 93.297821 0.693632 -0.707859 0.133457
474.449707 -89.934105 87.234955 0.740367 -0.668715 0.068384
478.560303 -84.763062 93.297821 0.740367 -0.668715 0.068384
474.813904 -88.804802 94.335152 0.740367 -0.668715 0.068384
473.872192 -91.114136 80.183151 0.776031 -0.625870 -0.077863
477.049011 -87.101357 79.590233 0.776031 -0.625870 -0.077863
478.376312 -86.279358 86.211617 0.776031 -0.625870 -0.077863
473.872192 -91.114136 80.183151 0.688841 -0.722045 0.064412
478.376312 -86.279358 86.211617 0.688841 -0.722045 0.064412
474.449707 -89.934105 87.234955 0.688841 -0.722045 0.064412
481.834412 -75.823776 86.197754 0.988147 0.123199 0.091585
481.417908 -76.016548 90.950882 0.988147 0.123199 0.091585
481.633911 -78.621315 92.124222 0.988147 0.123199 0.091585
481.834412 -75.823776 86.197754 0.993108 0.089397 0.075797
481.633911 -78.621315 92.124222 0.993108 0.089397 0.075797
482.395203 -80.575302 84.454247 0.993108 0.089397 0.075797
473.307495 -72.117294 76.397285 0.484068 0.338365 -0.806961
477.521393 -75.097237 77.675545 0.484068 0.338365 -0.806961
477.349487 -82.000534 74.677818 0.484068 0.338365 -0.806961
473.307495 -72.117294 76.397285 0.806790 0.404828 -0.430353
477.349487 -82.000534 74.677818 0.806790 0.404828 -0.430353
474.481415 -78.232658 72.845398 0.806790 0.404828 -0.430353
478.376312 -86.279358 86.211617 0.828358 -0.517671 0.214100
482.395203 -80.575302 84.454247 0.828358 -0.517671 0.214100
481.633911 -78.621315 92.124222 0.828358 -0.517671 0.214100
478.376312 -86.279358 86.211617 0.897362 -0.435717 0.069935
481.633911 -78.621315 92.124222 0.897362 -0.435717 0.069935
478.560303 -84.763062 93.297821 0.897362 -0.435717 0.069935
477.049011 -87.101357 79.590233 0.821816 -0.541753 -0.176413
479.722412 -82.828407 78.922264 0.821816 -0.541753 -0.176413
482.395203 -80.575302 84.454247 0.821816 -0.541753 -0.176413
477.049011 -87.101357 79.590233 0.801507 -0.591589 -0.087226
482.395203 -80.575302 84.454247 0.801507 -0.591589 -0.087226
478.376312 -86.279358 86.211617 0.801507 -0.591589 -0.087226
460.639496 -94.642693 101.017181 -0.435868 -0.891717 0.121898
456.155396 -92.187843 102.941383 -0.435868 -0.891717 0.121898
452.556610 -91.036812 98.493385 -0.435868 -0.891717 0.121898
460.639496 -94.642693 101.017181 -0.473998 -0.789218 0.390461
452.556610 -91.036812 98.493385 -0.473998 -0.789218 0.390461
455.852386 -93.921883 96.662834 -0.473998 -0.789218 0.390461
456.155396 -92.187843 102.941383 -0.784823 0.364722 0.501030
459.980286 -89.374878 106.885086 -0.784823 0.364722 0.501030
457.093903 -86.796913 100.487183 -0.784823 0.364722 0.501030
456.155396 -92.187843 102.941383 -0.657179 0.404069 0.636273
457.093903 -86.796913 100.487183 -0.657179 0.404069 0.636273
452.556610 -91.036812 98.493385 -0.657179 0.404069 0.636273
460.639496 -94.642693 101.017181 0.068612 -0.738535 0.670715
465.481995 -93.122894 102.195282 0.068612 -0.738535 0.670715
459.980286 -89.374878 106.885086 0.068612 -0.738535 0.670715
460.639496 -94.642693 101.017181 -0.127005 -0.745157 0.654684
459.980286 -89.374878 106.885086 -0.127005 -0.745157 0.654684
456.155396 -92.187843 102.941383 -0.127005 -0.745157 0.654684
462.209900 -96.426743 95.673698 0.243407 -0.908988 0.338370
467.231293 -95.097229 95.633118 0.243407 -0.908988 0.338370
465.481995 -93.122894 102.195282 0.243407 -0.908988 0.338370
462.209900 -96.426743 95.673698 0.197748 -0.910870 0.362232
465.481995 -93.122894 102.195282 0.197748 -0.910870 0.362232
460.639496 -94.642693 101.017181 0.197748 -0.910870 0.362232
459.980286 -89.374878 106.885086 -0.632182 0.691597 0.349342
465.498413 -85.208916 108.623482 -0.632182 0.691597 0.349342
463.089508 -83.410149 100.703186 -0.632182 0.691597 0.349342
459.980286 -89.374878 106.885086 -0.439725 0.746608 0.499217
463.089508 -83.410149 100.703186 -0.439725 0.746608 0.499217
457.093903 -86.796913 100.487183 -0.439725 0.746608 0.499217
465.481995 -93.122894 102.195282 0.323000 -0.597089 0.734272
470.194885 -90.467163 102.281685 0.323000 -0.597089 0.734272
465.498413 -85.208916 108.623482 0.323000 -0.597089 0.734272
465.481995 -93.122894 102.195282 0.225765 -0.614484 0.755936
465.498413 -85.208916 108.623482 0.225765 -0.614484 0.755936
459.980286 -89.374878 106.885086 0.225765 -0.614484 0.755936
467.231293 -95.097229 95.633118 0.569183 -0.771713 0.283708
471.372406 -92.227867 95.130035 0.569183 -0.771713 0.283708
470.194885 -90.467163 102.281685 0.569183 -0.771713 0.283708
467.231293 -95.097229 95.633118 0.451901 -0.813834 0.365320
470.194885 -90.467163 102.281685 0.451901 -0.813834 0.365320
465.481995 -93.122894 102.195282 0.451901 -0.813834 0.365320
465.498413 -85.208916 108.623482 -0.352692 0.775888 0.523073
472.101593 -80.190659 105.632088 -0.352692 0.775888 0.523073
468.433685 -77.951195 99.837074 -0.352692 0.775888 0.523073
465.498413 -85.208916 108.623482 -0.640993 0.683060 0.350082
468.433685 -77.951195 99.837074 -0.640993 0.683060 0.350082
463.089508 -83.410149 100.703186 -0.640993 0.683060 0.350082
470.194885 -90.467163 102.281685 0.586371 -0.347374 0.731779
474.348114 -86.425102 100.872482 0.586371 -0.347374 0.731779
472.101593 -80.190659 105.632088 0.586371 -0.347374 0.731779
470.194885 -90.467163 102.281685 0.592884 -0.346934 0.726722
472.101593 -80.190659 105.632088 0.592884 -0.346934 0.726722
465.498413 -85.208916 108.623482 0.592884 -0.346934 0.726722
471.372406 -92.227867 95.130035 0.708196 -0.645711 0.285509
474.813904 -88.804802 94.335152 0.708196 -0.645711 0.285509
474.348114 -86.425102 100.872482 0.708196 -0.645711 0.285509
471.372406 -92.227867 95.130035 0.716830 -0.640427 0.275696
474.348114 -86.425102 100.872482 0.716830 -0.640427 0.275696
470.194885 -90.467163 102.281685 0.716830 -0.640427 0.275696
472.101593 -80.190659 105.632088 0.076406 0.813677 0.576274
475.746490 -77.118309 100.810783 0.076406 0.813677 0.576274
473.145813 -74.516945 97.482567 0.076406 0.813677 0.576274
472.101593 -80.190659 105.632088 -0.323744 0.795444 0.512308
473.145813 -74.516945 97.482567 -0.323744 0.795444 0.512308
468.433685 -77.951195 99.837074 -0.323744 0.795444 0.512308
474.348114 -86.425102 100.872482 0.636782 -0.090602 0.765702
477.453491 -82.172272 98.793175 0.636782 -0.090602 0.765702
475.746490 -77.118309 100.810783 0.636782 -0.090602 0.765702
474.348114 -86.425102 100.872482 0.827348 -0.120675 0.548574
475.746490 -77.118309 100.810783 0.827348 -0.120675 0.548574
472.101593 -80.190659 105.632088 0.827348 -0.120675 0.548574
474.813904 -88.804802 94.335152 0.719086 -0.561435 0.409519
478.560303 -84.763062 93.297821 0.719086 -0.561435 0.409519
477.453491 -82.172272 98.793175 0.719086 -0.561435 0.409519
474.813904 -88.804802 94.335152 0.836149 -0.493575 0.239246
477.453491 -82.172272 98.793175 0.836149 -0.493575 0.239246
474.348114 -86.425102 100.872482 0.836149 -0.493575 0.239246
478.953094 -74.428162 93.727028 0.364044 0.828962 0.424611
475.135712 -73.715958 95.609467 0.364044 0.828962 0.424611
477.092987 -75.774422 97.950089 0.364044 0.828962 0.424611
478.953094 -74.428162 93.727028 0.765278 0.433964 0.475420
477.092987 -75.774422 97.950089 0.765278 0.433964 0.475420
479.091492 -78.081657 96.839165 0.765278 0.433964 0.475420
453.179199 -91.802895 83.264206 -0.536719 -0.834333 0.125783
456.102814 -94.041649 80.889435 -0.536719 -0.834333 0.125783
457.691406 -94.377808 85.438202 -0.536719 -0.834333 0.125783
453.179199 -91.802895 83.264206 -0.482992 -0.874970 -0.033859
457.691406 -94.377808 85.438202 -0.482992 -0.874970 -0.033859
453.345398 -92.050224 87.284798 -0.482992 -0.874970 -0.033859
475.746490 -77.118309 100.810783 0.257726 0.822176 0.507548
477.092987 -75.774422 97.950089 0.257726 0.822176 0.507548
475.135712 -73.715958 95.609467 0.257726 0.822176 0.507548
475.746490 -77.118309 100.810783 0.160227 0.834562 0.527099
475.135712 -73.715958 95.609467 0.160227 0.834562 0.527099
473.145813 -74.516945 97.482567 0.160227 0.834562 0.527099
477.453491 -82.172272 98.793175 0.597950 0.137745 0.789609
479.091492 -78.081657 96.839165 0.597950 0.137745 0.789609
477.092987 -75.774422 97.950089 0.597950 0.137745 0.789609
477.453491 -82.172272 98.793175 0.878143 0.110808 0.465387
477.092987 -75.774422 97.950089 0.878143 0.110808 0.465387
475.746490 -77.118309 100.810783 0.878143 0.110808 0.465387
478.560303 -84.763062 93.297821 0.818684 -0.318387 0.477897
481.633911 -78.621315 92.124222 0.818684 -0.318387 0.477897
479.091492 -78.081657 96.839165 0.818684 -0.318387 0.477897
478.560303 -84.763062 93.297821 0.927248 -0.230237 0.295301
479.091492 -78.081657 96.839165 0.927248 -0.230237 0.295301
477.453491 -82.172272 98.793175 0.927248 -0.230237 0.295301
452.556610 -91.036812 98.493385 -0.634889 -0.772383 0.018471
450.329010 -89.330727 93.267593 -0.634889 -0.772383 0.018471
454.100403 -92.464294 91.865501 -0.634889 -0.772383 0.018471
452.556610 -91.036812 98.493385 -0.655500 -0.755130 0.009955
454.100403 -92.464294 91.865501 -0.655500 -0.755130 0.009955
455.852386 -93.921883 96.662834 -0.655500 -0.755130 0.009955
478.953094 -74.428162 93.727028 0.272733 0.873598 0.403043
478.523499 -72.456345 89.743805 0.272733 0.873598 0.403043
474.132996 -72.224548 92.212372 0.272733 0.873598 0.403043
478.953094 -74.428162 93.727028 0.316463 0.899429 0.301462
474.132996 -72.224548 92.212372 0.316463 0.899429 0.301462
475.135712 -73.715958 95.609467 0.316463 0.899429 0.301462
452.556610 -91.036812 98.493385 -0.716363 0.596067 0.362668
457.093903 -86.796913 100.487183 -0.716363 0.596067 0.362668
455.521210 -84.870079 94.213837 -0.716363 0.596067 0.362668
452.556610 -91.036812 98.493385 -0.622970 0.625488 0.469759
455.521210 -84.870079 94.213837 -0.622970 0.625488 0.469759
450.329010 -89.330727 93.267593 -0.622970 0.625488 0.469759
477.706696 -71.498734 85.516693 0.628063 0.701509 -0.336783
480.506714 -75.981354 81.401253 0.628063 0.701509 -0.336783
477.521393 -75.097237 77.675545 0.628063 0.701509 -0.336783
477.706696 -71.498734 85.516693 0.772946 0.569524 -0.279636
477.521393 -75.097237 77.675545 0.772946 0.569524 -0.279636
476.303009 -71.423805 81.789337 0.772946 0.569524 -0.279636
461.815887 -96.954369 83.990135 -0.391234 -0.906010 0.161498
462.881592 -96.380348 89.792122 -0.391234 -0.906010 0.161498
458.420898 -94.410538 90.036652 -0.391234 -0.906010 0.161498
461.815887 -96.954369 83.990135 -0.509340 -0.857317 0.074699
458.420898 -94.410538 90.036652 -0.509340 -0.857317 0.074699
457.691406 -94.377808 85.438202 -0.509340 -0.857317 0.074699
449.393890 -88.707329 87.506386 -0.694513 -0.712528 -0.099776
450.515686 -88.995102 81.752937 -0.694513 -0.712528 -0.099776
453.179199 -91.802895 83.264206 -0.694513 -0.712528 -0.099776
449.393890 -88.707329 87.506386 -0.646393 -0.762737 -0.020200
453.179199 -91.802895 83.264206 -0.646393 -0.762737 -0.020200
453.345398 -92.050224 87.284798 -0.646393 -0.762737 -0.020200
477.706696 -71.498734 85.516693 0.303392 0.948098 -0.095196
476.303009 -71.423805 81.789337 0.303392 0.948098 -0.095196
472.528107 -70.091103 83.031586 0.303392 0.948098 -0.095196
477.706696 -71.498734 85.516693 0.210383 0.971215 0.111716
472.528107 -70.091103 83.031586 0.210383 0.971215 0.111716
473.388489 -70.957207 88.940895 0.210383 0.971215 0.111716
449.393890 -88.707329 87.506386 -0.760845 0.641023 -0.101014
453.828796 -83.331345 88.217712 -0.760845 0.641023 -0.101014
454.245392 -83.818222 81.990196 -0.760845 0.641023 -0.101014
449.393890 -88.707329 87.506386 -0.793533 0.580125 -0.183738
454.245392 -83.818222 81.990196 -0.793533 0.580125 -0.183738
450.515686 -88.995102 81.752937 -0.793533 0.580125 -0.183738
459.423096 -79.455849 88.655731 -0.597838 0.795213 -0.101119
464.152405 -75.875916 88.848045 -0.597838 0.795213 -0.101119
463.082703 -77.407936 83.124382 -0.597838 0.795213 -0.101119
459.423096 -79.455849 88.655731 -0.568800 0.819229 -0.073015
463.082703 -77.407936 83.124382 -0.568800 0.819229 -0.073015
458.937714 -80.313164 82.817894 -0.568800 0.819229 -0.073015
464.152405 -75.875916 88.848045 -0.552732 0.833055 0.022495
468.770691 -72.817726 89.071915 -0.552732 0.833055 0.022495
467.157104 -73.729607 83.193565 -0.552732 0.833055 0.022495
464.152405 -75.875916 88.848045 -0.667606 0.740875 -0.073536
467.157104 -73.729607 83.193565 -0.667606 0.740875 -0.073536
463.082703 -77.407936 83.124382 -0.667606 0.740875 -0.073536
468.770691 -72.817726 89.071915 -0.362585 0.913075 0.186617
473.388489 -70.957207 88.940895 -0.362585 0.913075 0.186617
472.528107 -70.091103 83.031586 -0.362585 0.913075 0.186617
468.770691 -72.817726 89.071915 -0.560154 0.828002 0.025316
472.528107 -70.091103 83.031586 -0.560154 0.828002 0.025316
467.157104 -73.729607 83.193565 -0.560154 0.828002 0.025316
450.515686 -88.995102 81.752937 -0.672891 -0.708672 -0.212134
453.937408 -90.921082 77.333298 -0.672891 -0.708672 -0.212134
456.102814 -94.041649 80.889435 -0.672891 -0.708672 -0.212134
450.515686 -88.995102 81.752937 -0.675361 -0.721883 -0.150910
456.102814 -94.041649 80.889435 -0.675361 -0.721883 -0.150910
453.179199 -91.802895 83.264206 -0.675361 -0.721883 -0.150910
476.303009 -71.423805 81.789337 0.605218 0.674400 -0.422961
477.521393 -75.097237 77.675545 0.605218 0.674400 -0.422961
473.307495 -72.117294 76.397285 0.605218 0.674400 -0.422961
476.303009 -71.423805 81.789337 0.245563 0.934789 -0.256647
473.307495 -72.117294 76.397285 0.245563 0.934789 -0.256647
472.528107 -70.091103 83.031586 0.245563 0.934789 -0.256647
450.515686 -88.995102 81.752937 -0.652905 0.496600 -0.571930
454.245392 -83.818222 81.990196 -0.652905 0.496600 -0.571930
456.651093 -86.677902 76.760872 -0.652905 0.496600 -0.571930
450.515686 -88.995102 81.752937 -0.667508 0.337348 -0.663799
456.651093 -86.677902 76.760872 -0.667508 0.337348 -0.663799
453.937408 -90.921082 77.333298 -0.667508 0.337348 -0.663799
454.245392 -83.818222 81.990196 -0.441284 0.717902 -0.538410
458.937714 -80.313164 82.817894 -0.441284 0.717902 -0.538410
460.532715 -83.496796 77.265656 -0.441284 0.717902 -0.538410
454.245392 -83.818222 81.990196 -0.469885 0.665401 -0.580043
460.532715 -83.496796 77.265656 -0.469885 0.665401 -0.580043
456.651093 -86.677902 76.760872 -0.469885 0.665401 -0.580043
458.937714 -80.313164 82.817894 -0.484364 0.740250 -0.466285
463.082703 -77.407936 83.124382 -0.484364 0.740250 -0.466285
464.185303 -80.383469 77.255226 -0.484364 0.740250 -0.466285
458.937714 -80.313164 82.817894 -0.551574 0.645342 -0.528488
464.185303 -80.383469 77.255226 -0.551574 0.645342 -0.528488
460.532715 -83.496796 77.265656 -0.551574 0.645342 -0.528488
463.082703 -77.407936 83.124382 -0.624736 0.698567 -0.348867
467.157104 -73.729607 83.193565 -0.624736 0.698567 -0.348867
467.836212 -76.306885 76.816742 -0.624736 0.698567 -0.348867
463.082703 -77.407936 83.124382 -0.696800 0.578418 -0.424149
467.836212 -76.306885 76.816742 -0.696800 0.578418 -0.424149
464.185303 -80.383469 77.255226 -0.696800 0.578418 -0.424149
467.157104 -73.729607 83.193565 -0.540711 0.784678 -0.303171
472.528107 -70.091103 83.031586 -0.540711 0.784678 -0.303171
473.307495 -72.117294 76.397285 -0.540711 0.784678 -0.303171
467.157104 -73.729607 83.193565 -0.585066 0.728341 -0.356676
473.307495 -72.117294 76.397285 -0.585066 0.728341 -0.356676
467.836212 -76.306885 76.816742 -0.585066 0.728341 -0.356676
480.506714 -75.981354 81.401253 0.940670 0.209085 -0.267252
481.834412 -75.823776 86.197754 0.940670 0.209085 -0.267252
482.395203 -80.575302 84.454247 0.940670 0.209085 -0.267252
480.506714 -75.981354 81.401253 0.888351 0.062917 -0.454834
482.395203 -80.575302 84.454247 0.888351 0.062917 -0.454834
479.722412 -82.828407 78.922264 0.888351 0.062917 -0.454834
464.210114 -96.502724 75.471207 0.447491 -0.879146 -0.163870
468.412903 -93.995056 73.494675 0.447491 -0.879146 -0.163870
470.403900 -94.355019 80.862778 0.447491 -0.879146 -0.163870
464.210114 -96.502724 75.471207 0.388081 -0.918139 -0.080088
470.403900 -94.355019 80.862778 0.388081 -0.918139 -0.080088
466.219208 -96.252594 82.339142 0.388081 -0.918139 -0.080088
468.412903 -93.995056 73.494675 0.677959 -0.688837 -0.256664
472.074005 -90.273499 73.177261 0.677959 -0.688837 -0.256664
473.872192 -91.114136 80.183151 0.677959 -0.688837 -0.256664
468.412903 -93.995056 73.494675 0.645181 -0.734538 -0.210225
473.872192 -91.114136 80.183151 0.645181 -0.734538 -0.210225
470.403900 -94.355019 80.862778 0.645181 -0.734538 -0.210225
472.074005 -90.273499 73.177261 0.785464 -0.503078 -0.360497
475.006714 -86.000298 73.603851 0.785464 -0.503078 -0.360497
477.049011 -87.101357 79.590233 0.785464 -0.503078 -0.360497
472.074005 -90.273499 73.177261 0.736914 -0.622379 -0.263822
477.049011 -87.101357 79.590233 0.736914 -0.622379 -0.263822
473.872192 -91.114136 80.183151 0.736914 -0.622379 -0.263822
475.006714 -86.000298 73.603851 0.795383 -0.329238 -0.508889
477.349487 -82.000534 74.677818 0.795383 -0.329238 -0.508889
479.722412 -82.828407 78.922264 0.795383 -0.329238 -0.508889
475.006714 -86.000298 73.603851 0.764858 -0.534704 -0.359283
479.722412 -82.828407 78.922264 0.764858 -0.534704 -0.359283
477.049011 -87.101357 79.590233 0.764858 -0.534704 -0.359283
458.420898 -94.410538 90.036652 -0.443691 -0.889845 -0.106366
458.767487 -95.077042 94.166817 -0.443691 -0.889845 -0.106366
455.852386 -93.921883 96.662834 -0.443691 -0.889845 -0.106366
458.420898 -94.410538 90.036652 -0.445733 -0.888719 -0.107240
455.852386 -93.921883 96.662834 -0.445733 -0.888719 -0.107240
454.100403 -92.464294 91.865501 -0.445733 -0.888719 -0.107240
478.523499 -72.456345 89.743805 0.707840 0.660429 0.250591
478.953094 -74.428162 93.727028 0.707840 0.660429 0.250591
481.417908 -76.016548 90.950882 0.707840 0.660429 0.250591
478.523499 -72.456345 89.743805 0.757003 0.646821 0.092567
481.417908 -76.016548 90.950882 0.757003 0.646821 0.092567
481.834412 -75.823776 86.197754 0.757003 0.646821 0.092567
463.271515 -88.671089 70.066788 0.210632 -0.487605 -0.847275
466.882202 -84.957344 68.827148 0.210632 -0.487605 -0.847275
472.074005 -90.273499 73.177261 0.210632 -0.487605 -0.847275
463.271515 -88.671089 70.066788 0.259737 -0.332834 -0.906509
472.074005 -90.273499 73.177261 0.259737 -0.332834 -0.906509
468.412903 -93.995056 73.494675 0.259737 -0.332834 -0.906509
460.532715 -83.496796 77.265656 -0.552086 0.645947 -0.527214
464.185303 -80.383469 77.255226 -0.552086 0.645947 -0.527214
466.882202 -84.957344 68.827148 -0.552086 0.645947 -0.527214
460.532715 -83.496796 77.265656 -0.670798 0.457284 -0.583884
466.882202 -84.957344 68.827148 -0.670798 0.457284 -0.583884
463.271515 -88.671089 70.066788 -0.670798 0.457284 -0.583884
466.882202 -84.957344 68.827148 0.467319 -0.247212 -0.848822
471.000702 -81.401924 70.059105 0.467319 -0.247212 -0.848822
475.006714 -86.000298 73.603851 0.467319 -0.247212 -0.848822
466.882202 -84.957344 68.827148 0.469526 -0.237340 -0.850420
475.006714 -86.000298 73.603851 0.469526 -0.237340 -0.850420
472.074005 -90.273499 73.177261 0.469526 -0.237340 -0.850420
464.185303 -80.383469 77.255226 -0.605223 0.473168 -0.640169
467.836212 -76.306885 76.816742 -0.605223 0.473168 -0.640169
471.000702 -81.401924 70.059105 -0.605223 0.473168 -0.640169
464.185303 -80.383469 77.255226 -0.456028 0.712862 -0.532791
471.000702 -81.401924 70.059105 -0.456028 0.712862 -0.532791
466.882202 -84.957344 68.827148 -0.456028 0.712862 -0.532791
471.000702 -81.401924 70.059105 0.590882 0.058457 -0.804637
474.481415 -78.232658 72.845398 0.590882 0.058457 -0.804637
477.349487 -82.000534 74.677818 0.590882 0.058457 -0.804637
471.000702 -81.401924 70.059105 0.576522 -0.120699 -0.808118
477.349487 -82.000534 74.677818 0.576522 -0.120699 -0.808118
475.006714 -86.000298 73.603851 0.576522 -0.120699 -0.808118
467.836212 -76.306885 76.816742 -0.377489 0.409835 -0.830384
473.307495 -72.117294 76.397285 -0.377489 0.409835 -0.830384
474.481415 -78.232658 72.845398 -0.377489 0.409835 -0.830384
467.836212 -76.306885 76.816742 -0.167029 0.748080 -0.642245
474.481415 -78.232658 72.845398 -0.167029 0.748080 -0.642245
471.000702 -81.401924 70.059105 -0.167029 0.748080 -0.642245
462.209900 -96.426743 95.673698 -0.329875 -0.920298 0.210316
460.639496 -94.642693 101.017181 -0.329875 -0.920298 0.210316
455.852386 -93.921883 96.662834 -0.329875 -0.920298 0.210316
462.209900 -96.426743 95.673698 -0.366166 -0.930545 0.003011
455.852386 -93.921883 96.662834 -0.366166 -0.930545 0.003011
458.767487 -95.077042 94.166817 -0.366166 -0.930545 0.003011
481.417908 -76.016548 90.950882 0.784649 0.418960 0.456944
478.953094 -74.428162 93.727028 0.784649 0.418960 0.456944
479.091492 -78.081657 96.839165 0.784649 0.418960 0.456944
481.417908 -76.016548 90.950882 0.860732 0.266698 0.433604
479.091492 -78.081657 96.839165 0.860732 0.266698 0.433604
481.633911 -78.621315 92.124222 0.860732 0.266698 0.433604
459.918213 -96.765968 78.377815 -0.489866 -0.861009 0.136733
461.815887 -96.954369 83.990135 -0.489866 -0.861009 0.136733
457.691406 -94.377808 85.438202 -0.489866 -0.861009 0.136733
459.918213 -96.765968 78.377815 -0.523180 -0.843679 0.120365
457.691406 -94.377808 85.438202 -0.523180 -0.843679 0.120365
456.102814 -94.041649 80.889435 -0.523180 -0.843679 0.120365
477.521393 -75.097237 77.675545 0.788558 0.127485 -0.601601
480.506714 -75.981354 81.401253 0.788558 0.127485 -0.601601
479.722412 -82.828407 78.922264 0.788558 0.127485 -0.601601
477.521393 -75.097237 77.675545 0.873495 0.175448 -0.454120
479.722412 -82.828407 78.922264 0.873495 0.175448 -0.454120
477.349487 -82.000534 74.677818 0.873495 0.175448 -0.454120
3 0 1 2
3 3 4 5
3 6 7 8
3 9 10 11
3 12 13 14
3 15 16 17
3 18 19 20
3 21 22 23
3 24 25 26
3 27 28 29
3 30 31 32
3 33 34 35
3 36 37 38
3 39 40 41
3 42 43 44
3 45 46 47
3 48 49 50
3 51 52 53
3 54 55 56
3 57 58 59
3 60 61 62
3 63 64 65
3 66 67 68
3 69 70 71
3 72 73 74
3 75 76 77
3 78 79 80
3 81 82 83
3 84 85 86
3 87 88 89
3 90 91 92
3 93 94 95
3 96 97 98
3 99 100 101
3 102 103 104
3 105 106 107
3 108 109 110
3 111 112 113
3 114 115 116
3 117 118 119
3 120 121 122
3 123 124 125
3 126 127 128
3 129 130 131
3 132 133 134
3 135 136 137
3 138 139 140
3 141 142 143
3 144 145 146
3 147 148 149
3 150 151 152
3 153 154 155
3 156 157 158
3 159 160 161
3 162 163 164
3 165 166 167
3 168 169 170
3 171 172 173
3 174 175 176
3 177 178 179
3 180 181 182
3 183 184 185
3 186 187 188
3 189 190 191
3 192 193 194
3 195 196 197
3 198 199 200
3 201 202 203
3 204 205 206
3 207 208 209
3 210 211 212
3 213 214 215
3 216 217 218
3 219 220 221
3 222 223 224
3 225 226 227
3 228 229 230
3 231 232 233
3 234 235 236
3 237 238 239
3 240 241 242
3 243 244 245
3 246 247 248
3 249 250 251
3 252 253 254
3 255 256 257
3 258 259 260
3 261 262 263
3 264 265 266
3 267 268 269
3 270 271 272
3 273 274 275
3 276 277 278
3 279 280 281
3 282 283 284
3 285 286 287
3 288 289 290
3 291 292 293
3 294 295 296
3 297 298 299
3 300 301 302
3 303 304 305
3 306 307 308
3 309 310 311
3 312 313 314
3 315 316 317
3 318 319 320
3 321 322 323
3 324 325 326
3 327 328 329
3 330 331 332
3 333 334 335
3 336 337 338
3 339 340 341
3 342 343 344
3 345 346 347
3 348 349 350
3 351 352 353
3 354 355 356
3 357 358 359
3 360 361 362
3 363 364 365
3 366 367 368
3 369 370 371
3 372 373 374
3 375 376 377
3 378 379 380
3 381 382 383
3 384 385 386
3 387 388 389
3 390 391 392
3 393 394 395
3 396 397 398
3 399 400 401
3 402 403 404
3 405 406 407
3 408 409 410
3 411 412 413
3 414 415 416
3 417 418 419
3 420 421 422
3 423 424 425
3 426 427 428
3 429 430 431
3 432 433 434
3 435 436 437
3 438 439 440
3 441 442 443
3 444 445 446
3 447 448 449
3 450 451 452
3 453 454 455
3 456 457 458
3 459 460 461
3 462 463 464
3 465 466 467
3 468 469 470
3 471 472 473
3 474 475 476
3 477 478 479
3 480 481 482
3 483 484 485
3 486 487 488
3 489 490 491
3 492 493 494
3 495 496 497
3 498 499 500
3 501 502 503
3 504 505 506
3 507 508 509
3 510 511 512
3 513 514 515
